<?xml version="1.0" encoding="utf-8"?>
<!-- Generator: Adobe Illustrator 24.0.1, SVG Export Plug-In . SVG Version: 6.00 Build 0)  -->
<svg version="1.1" id="Layer_1" xmlns="http://www.w3.org/2000/svg" xmlns:xlink="http://www.w3.org/1999/xlink" x="0px" y="0px"
	 viewBox="0 0 240 336" style="enable-background:new 0 0 240 336;" xml:space="preserve">
<style type="text/css">
	.st0{fill:#FFFFFF;}
	.st1{fill:#404041;}
	.st2{fill:#252A60;}
	.st3{fill:#B72E26;}
	.st4{fill:#F58722;}
</style>
<rect x="1.2" y="0" class="st0" width="238.8" height="336"/>
<g>
	<g>
		<g>
			<path class="st1" d="M59.4,288c0-0.2,0.1-0.4,0.4-0.4h4c2.1,0,3.7,1.4,3.7,3.3c0,1.3-1.2,2.4-1.9,2.8c1,0.3,2.3,1.2,2.3,2.9
				c0,2-1.7,3.5-3.8,3.5h-4.3c-0.2,0-0.4-0.2-0.4-0.4V288z M63.6,292.9c0.9,0,1.5-0.7,1.5-1.6c0-0.9-0.6-1.5-1.5-1.5h-1.9v3.1
				L63.6,292.9L63.6,292.9z M63.8,298c0.9,0,1.6-0.7,1.6-1.6c0-0.9-0.9-1.5-1.8-1.5h-1.9v3.2L63.8,298L63.8,298z"/>
			<path class="st1" d="M71.7,288c0-0.2,0.2-0.4,0.4-0.4h1.6c0.2,0,0.4,0.2,0.4,0.4v11.7c0,0.2-0.2,0.4-0.4,0.4h-1.6
				c-0.2,0-0.4-0.2-0.4-0.4V288z"/>
			<path class="st1" d="M80.4,289.9h-2.7c-0.2,0-0.4-0.2-0.4-0.4V288c0-0.2,0.1-0.4,0.4-0.4h7.8c0.2,0,0.4,0.2,0.4,0.4v1.4
				c0,0.2-0.1,0.4-0.4,0.4h-2.7v10c0,0.2-0.2,0.4-0.4,0.4h-1.6c-0.2,0-0.4-0.2-0.4-0.4C80.4,299.8,80.4,289.9,80.4,289.9z"/>
			<path class="st1" d="M88.3,298.4l0.7-1.1c0.1-0.3,0.5-0.3,0.6-0.1c0.1,0.1,1.5,1.1,2.7,1.1c1,0,1.6-0.6,1.6-1.3
				c0-0.9-0.8-1.5-2.2-2.1c-1.6-0.7-3.4-1.7-3.4-3.8c0-1.5,1.2-3.4,4-3.4c1.8,0,3.2,1,3.6,1.2c0.2,0.1,0.2,0.4,0.1,0.6l-0.7,1.1
				c-0.1,0.2-0.4,0.4-0.6,0.2c-0.1-0.1-1.5-1-2.5-1c-1.1,0-1.5,0.7-1.5,1.2c0,0.9,0.7,1.4,2.1,2c1.7,0.7,3.7,1.7,3.7,4
				c0,1.8-1.5,3.6-4,3.6c-2.2,0-3.6-1.1-3.9-1.3C88.2,298.8,88.1,298.7,88.3,298.4z"/>
			<path class="st1" d="M104.7,298.4l0.7-1.1c0.1-0.3,0.5-0.3,0.6-0.1c0.1,0.1,1.5,1.1,2.7,1.1c1,0,1.6-0.6,1.6-1.3
				c0-0.9-0.8-1.5-2.2-2.1c-1.6-0.7-3.4-1.7-3.4-3.8c0-1.5,1.2-3.4,4-3.4c1.8,0,3.2,1,3.6,1.2c0.2,0.1,0.2,0.4,0.1,0.6l-0.7,1.1
				c-0.1,0.2-0.4,0.4-0.6,0.2c-0.1-0.1-1.5-1-2.5-1c-1.1,0-1.5,0.7-1.5,1.2c0,0.9,0.7,1.4,2.1,2c1.7,0.7,3.7,1.7,3.7,4
				c0,1.8-1.5,3.6-4,3.6c-2.2,0-3.6-1.1-3.9-1.3C104.6,298.8,104.5,298.7,104.7,298.4z"/>
			<path class="st1" d="M121.8,287.6c1.8,0,3.1,0.6,4.3,1.6c0.2,0.1,0.2,0.4,0,0.5l-1.1,1.2c-0.1,0.1-0.3,0.1-0.5,0
				c-0.8-0.7-1.7-1.1-2.7-1.1c-2.3,0-3.9,1.9-3.9,4.1c0,2.2,1.7,4.1,3.9,4.1c1.1,0,2-0.4,2.7-1.1c0.1-0.1,0.4-0.1,0.5,0l1.1,1.2
				c0.1,0.1,0.1,0.4,0,0.5c-1.2,1.2-2.7,1.7-4.3,1.7c-3.6,0-6.4-2.8-6.4-6.3C115.5,290.3,118.3,287.6,121.8,287.6z"/>
			<path class="st1" d="M129.9,288c0-0.2,0.2-0.4,0.4-0.4h1.6c0.2,0,0.4,0.2,0.4,0.4v4.7h5.8V288c0-0.2,0.1-0.4,0.4-0.4h1.6
				c0.2,0,0.4,0.2,0.4,0.4v11.7c0,0.2-0.2,0.4-0.4,0.4h-1.6c-0.2,0-0.4-0.2-0.4-0.4v-4.9h-5.8v4.9c0,0.2-0.1,0.4-0.4,0.4h-1.6
				c-0.2,0-0.4-0.2-0.4-0.4V288z"/>
			<path class="st1" d="M150.4,287.6c3.6,0,6.4,2.9,6.4,6.4c0,3.6-2.9,6.3-6.4,6.3s-6.3-2.8-6.3-6.3
				C144.1,290.3,146.9,287.6,150.4,287.6z M150.4,298c2.2,0,4-1.8,4-4c0-2.2-1.8-4.1-4-4.1s-4,1.8-4,4.1
				C146.4,296.2,148.2,298,150.4,298z"/>
			<path class="st1" d="M166.1,287.6c3.6,0,6.4,2.9,6.4,6.4c0,3.6-2.9,6.3-6.4,6.3s-6.3-2.8-6.3-6.3
				C159.6,290.3,162.5,287.6,166.1,287.6z M166.1,298c2.2,0,4-1.8,4-4c0-2.2-1.8-4.1-4-4.1s-4,1.8-4,4.1
				C161.9,296.2,163.8,298,166.1,298z"/>
			<path class="st1" d="M176.1,288c0-0.2,0.1-0.4,0.4-0.4h1.6c0.2,0,0.4,0.2,0.4,0.4v10h4.5c0.2,0,0.4,0.2,0.4,0.4v1.4
				c0,0.2-0.1,0.4-0.4,0.4h-6.5c-0.2,0-0.4-0.2-0.4-0.4L176.1,288L176.1,288z"/>
			<path class="st1" d="M43.2,311.1c3.6,0,6.4,2.9,6.4,6.4c0,3.6-2.9,6.3-6.4,6.3c-3.6,0-6.3-2.8-6.3-6.3
				C36.7,313.9,39.6,311.1,43.2,311.1z M43.2,321.5c2.2,0,4-1.8,4-4s-1.8-4.1-4-4.1c-2.2,0-4,1.8-4,4.1
				C39,319.7,40.9,321.5,43.2,321.5z"/>
			<path class="st1" d="M53.2,311.5c0-0.2,0.1-0.4,0.4-0.4h7.2c0.2,0,0.4,0.2,0.4,0.4v1.4c0,0.2-0.1,0.4-0.4,0.4h-5.3v3.4h4.4
				c0.2,0,0.4,0.2,0.4,0.4v1.4c0,0.2-0.2,0.4-0.4,0.4h-4.4v4.5c0,0.2-0.2,0.4-0.4,0.4h-1.6c-0.2,0-0.4-0.2-0.4-0.4L53.2,311.5
				L53.2,311.5z"/>
			<path class="st1" d="M71.3,311.3c0-0.1,0.1-0.3,0.3-0.3h0.3c0.1,0,0.3,0.1,0.3,0.2l3.9,8.3c0,0,0,0,0.1,0l3.9-8.3
				c0.1-0.1,0.1-0.2,0.3-0.2h0.3c0.2,0,0.3,0.1,0.3,0.3l2.1,11.9c0.1,0.3-0.1,0.4-0.3,0.4h-1.6c-0.2,0-0.3-0.1-0.4-0.3l-1.1-6.7
				h-0.1l-3.1,7c0,0.1-0.1,0.2-0.3,0.2H76c-0.2,0-0.3-0.1-0.3-0.2l-3.2-7c0,0,0,0-0.1,0l-1.1,6.7c0,0.1-0.2,0.3-0.3,0.3h-1.6
				c-0.2,0-0.4-0.2-0.4-0.4L71.3,311.3z"/>
			<path class="st1" d="M85.3,323.2l5.5-11.9c0.1-0.1,0.1-0.2,0.3-0.2h0.2c0.2,0,0.3,0.1,0.3,0.2l5.5,11.9c0.1,0.2,0,0.5-0.3,0.5
				h-1.5c-0.3,0-0.4-0.1-0.5-0.4l-0.9-1.9h-5.3l-0.9,1.9c-0.1,0.2-0.2,0.4-0.5,0.4h-1.5C85.3,323.6,85.2,323.4,85.3,323.2z
				 M93,319.4l-1.7-3.9h-0.1l-1.7,3.9H93z"/>
			<path class="st1" d="M100.1,311.3c0-0.2,0.2-0.3,0.4-0.3h0.5l7.4,7.9l0,0v-7.3c0-0.2,0.1-0.4,0.4-0.4h1.6c0.2,0,0.4,0.2,0.4,0.4
				v11.9c0,0.2-0.2,0.3-0.4,0.3h-0.4l-7.4-8.2l0,0v7.6c0,0.2-0.1,0.4-0.4,0.4h-1.6c-0.2,0-0.4-0.2-0.4-0.4L100.1,311.3L100.1,311.3z
				"/>
			<path class="st1" d="M113.6,323.2l5.5-11.9c0.1-0.1,0.1-0.2,0.3-0.2h0.2c0.2,0,0.3,0.1,0.3,0.2l5.5,11.9c0.1,0.2,0,0.5-0.3,0.5
				h-1.5c-0.3,0-0.4-0.1-0.5-0.4l-0.9-1.9h-5.3l-0.9,1.9c-0.1,0.2-0.2,0.4-0.5,0.4H114C113.6,323.6,113.4,323.4,113.6,323.2z
				 M121.2,319.4l-1.7-3.9h-0.1l-1.7,3.9H121.2z"/>
			<path class="st1" d="M133.7,311.1c1.6,0,3.2,0.6,4.3,1.6c0.1,0.1,0.2,0.4,0,0.5l-1.1,1.2c-0.1,0.1-0.3,0.1-0.5,0
				c-0.8-0.7-1.7-1.1-2.7-1.1c-2.2,0-3.9,1.9-3.9,4.1c0,2.2,1.7,4,4,4c1,0,1.7-0.3,2.1-0.5v-1.5h-1.4c-0.2,0-0.4-0.1-0.4-0.3v-1.4
				c0-0.2,0.1-0.4,0.4-0.4h3.4c0.2,0,0.3,0.2,0.3,0.4v4.5c0,0.1-0.1,0.2-0.1,0.3c0,0-1.8,1.2-4.4,1.2c-3.6,0-6.3-2.8-6.3-6.3
				C127.3,313.9,130.2,311.1,133.7,311.1z"/>
			<path class="st1" d="M142.3,311.5c0-0.2,0.1-0.4,0.4-0.4h7.2c0.2,0,0.4,0.2,0.4,0.4v1.4c0,0.2-0.1,0.4-0.4,0.4h-5.3v2.9h4.4
				c0.2,0,0.4,0.2,0.4,0.4v1.4c0,0.2-0.2,0.4-0.4,0.4h-4.4v3.1h5.3c0.2,0,0.4,0.2,0.4,0.4v1.4c0,0.2-0.1,0.4-0.4,0.4h-7.2
				c-0.2,0-0.4-0.2-0.4-0.4V311.5z"/>
			<path class="st1" d="M155.4,311.3c0-0.1,0.1-0.3,0.3-0.3h0.3c0.1,0,0.3,0.1,0.3,0.2l3.9,8.3c0,0,0,0,0.1,0l3.9-8.3
				c0.1-0.1,0.1-0.2,0.3-0.2h0.3c0.2,0,0.3,0.1,0.3,0.3l2.1,11.9c0.1,0.3-0.1,0.4-0.3,0.4h-1.6c-0.2,0-0.3-0.1-0.4-0.3l-1.1-6.7
				h-0.1l-3.1,7c0,0.1-0.1,0.2-0.3,0.2h-0.3c-0.2,0-0.3-0.1-0.3-0.2l-3.2-7c0,0,0,0-0.1,0l-1.1,6.7c0,0.1-0.2,0.3-0.3,0.3h-1.6
				c-0.2,0-0.4-0.2-0.4-0.4L155.4,311.3z"/>
			<path class="st1" d="M171,311.5c0-0.2,0.1-0.4,0.4-0.4h7.2c0.2,0,0.4,0.2,0.4,0.4v1.4c0,0.2-0.1,0.4-0.4,0.4h-5.3v2.9h4.4
				c0.2,0,0.4,0.2,0.4,0.4v1.4c0,0.2-0.2,0.4-0.4,0.4h-4.4v3.1h5.3c0.2,0,0.4,0.2,0.4,0.4v1.4c0,0.2-0.1,0.4-0.4,0.4h-7.2
				c-0.2,0-0.4-0.2-0.4-0.4V311.5z"/>
			<path class="st1" d="M182.9,311.3c0-0.2,0.2-0.3,0.4-0.3h0.5l7.4,7.9l0,0v-7.3c0-0.2,0.1-0.4,0.4-0.4h1.6c0.2,0,0.4,0.2,0.4,0.4
				v11.9c0,0.2-0.2,0.3-0.4,0.3h-0.4l-7.4-8.2l0,0v7.6c0,0.2-0.1,0.4-0.4,0.4h-1.6c-0.2,0-0.4-0.2-0.4-0.4L182.9,311.3L182.9,311.3z
				"/>
			<path class="st1" d="M199.6,313.4H197c-0.2,0-0.4-0.2-0.4-0.4v-1.4c0-0.2,0.1-0.4,0.4-0.4h7.8c0.2,0,0.4,0.2,0.4,0.4v1.4
				c0,0.2-0.1,0.4-0.4,0.4H202v10c0,0.2-0.2,0.4-0.4,0.4H200c-0.2,0-0.4-0.2-0.4-0.4L199.6,313.4L199.6,313.4z"/>
		</g>
	</g>
	<g>
		<g>
			<g>
				<g>
					<g>
						<path class="st2" d="M44.3,243.5c3.3-1,5.5-4.6,5.5-8.2c0-6.9-4.6-10.8-15.1-10.8h-13v40.1H38c9.8,0,13.2-5.8,13.2-11.3
							C51.3,248,48,244.4,44.3,243.5z M30.7,231.8h4.1c4.4,0,6,2.2,6,4.2c0,2.5-1.2,4.6-6,4.6h-4.1V231.8z M36.4,257h-5.8v-9.1h5.2
							c4.7,0,6.6,1.5,6.6,4.9C42.5,255.9,40,257,36.4,257z"/>
						<path class="st2" d="M61.4,224.6v40.1h9v-40.1H61.4z"/>
						<path class="st2" d="M78.4,224.6v7.3h8.3v32.8h9v-32.8h8.3v-7.3H78.4z"/>
						<path class="st2" d="M127.7,241.9l-5.5-2.8c-2.1-1.1-3.5-2-3.5-4.4c0-2.4,1.9-3.6,4.6-3.6c2.3,0,5.5,1,7.8,3l4.6-6.4
							c-3.8-2.8-8.3-3.6-12.4-3.6c-7.7,0-13.5,4.5-13.5,11.2c0,5,3.2,8.4,8.2,11l7,3.6c1.2,0.7,2.9,2,2.9,3.9c0,2.9-1.9,4-4.7,4
							c-3.7,0-7.2-2.1-9.6-4l-5,6.7c5.1,3.9,10.1,4.6,14.1,4.6c9.5,0,14.2-5.1,14.2-11.9C136.9,247.5,132.5,244.3,127.7,241.9z"/>
						<path class="st2" d="M200.8,244.3l-20.4-21v41.5h9v-21.8l11.3,12.1l10.9-12v21.6h9V223L200.8,244.3z"/>
						<rect x="145.1" y="258" class="st3" width="25.1" height="6.7"/>
						<path class="st2" d="M157.7,224.5c-8.9,0-15.1,6.3-15.1,14.7c0,8.3,6.1,14.7,15.1,14.7c9.1,0,15-6.3,15-14.7
							C172.7,230.8,166.6,224.5,157.7,224.5z M157.7,245.8c-3.8,0-6.2-3-6.2-6.6c0-3.6,2.4-6.5,6.2-6.5c3.9,0,6.2,3,6.2,6.5
							C163.9,242.8,161.7,245.8,157.7,245.8z"/>
					</g>
				</g>
				<g>
					<rect x="47.8" y="19.9" class="st0" width="146.7" height="183"/>
					<path class="st3" d="M121.2,119.2c9,0,16.4-7.4,16.4-16.4s-7.4-16.4-16.4-16.4s-16.4,7.4-16.4,16.4
						C104.8,111.8,112.1,119.2,121.2,119.2z M121.2,93.5c5.1,0,9.2,4.1,9.2,9.2s-4.1,9.2-9.2,9.2s-9.2-4.1-9.2-9.2
						C111.9,97.7,116.1,93.5,121.2,93.5z"/>
					<path class="st3" d="M147.1,192.5L147.1,192.5c-0.1,0-0.1,0-0.2,0.1C146.9,192.6,147,192.6,147.1,192.5z"/>
					<g>
						<path class="st4" d="M202.2,210.6H40.1V12.2h162.2V210.6z M47.8,202.8h146.7V19.9H47.8V202.8z"/>
					</g>
					<path class="st3" d="M194.6,132.1l-29.9-25.2l-5.3-4.5l-26.9,26.9v16.9h-22.4v-16.9l-26.9-26.9l-0.1-0.1l-5.3,4.5L48,132v9
						l10.8-9.1l0,0l21.5,21.7v23.7c0,1.6,0.5,2.3,5.4,6.8c1.8,1.7,5.6,5.2,10.4,9.2c1.5,1.2,10.7,8.3,13.3,10.3
						c3.9,2.8,7.7,5.1,10.7,6.2h0.1l1.2,0.5l1.2-0.4c1.3-0.5,6-3.1,6.4-3.4c5.7-3.6,12.3-8.8,17.5-13.2c0.2-0.1,7.3-6.3,9.2-8.2
						c0.5-0.4,0.9-0.8,1.2-1.1c4.8-4.5,5.4-5.2,5.4-6.8v-23.7l21.7-21.7l-0.5-0.4l0.5,0.4l10.9,9.2v-9H194.6z M130.5,153l-9.3,7
						l-9.3-7H130.5z M88.4,117.4l1.3,1.3l13.3,13.3v1.4c-2.7,0.4-5.4-0.1-7.8-1.3c-3.2-1.6-5.5-4.3-6.6-7.8
						C88,122.2,88,119.7,88.4,117.4z M87.2,176.1v-8.9l0.1-0.1l12.7-11.4l-12.7,4.1h-0.1v-9l-23.3-23.3l18.7-15.8L83,112
						c-2.1,4.5-2.4,9.8-0.9,14.6c1.6,5.2,5.2,9.3,10.1,11.8c2.9,1.4,6,2.2,9.2,2.2c0.6,0,1.2,0,1.7-0.1V155l14.6,11v6.3
						c-0.2,8.2-6.9,14.8-15.2,14.8c-1.2,0-2.6-0.2-3.7-0.5c-2.4-2.1-4.6-4-6.5-5.8l0,0l11-10.1L87.2,176.1z M133.2,195.2
						c-1.9,1.5-3.8,2.9-5.7,4.1c-0.3,0.2-0.5,0.4-0.8,0.5c0,0,0,0-0.1,0c-2,1.3-3.9,2.4-5.5,3.2c-2.2-1-6.6-4-9.9-6.3
						c-0.1,0-0.1-0.1-0.2-0.1c-0.7-0.5-1.3-1-1.9-1.3c-1.2-0.9-2.1-1.5-2.1-1.5l-0.1-0.1c5.8-1.3,11.1-4.9,14.2-9.7
						c3.1,4.9,8.2,8.5,13.9,9.8C134.5,194.1,133.8,194.6,133.2,195.2z M155,150.7v9l-12.3-4l12.3,11v9.1l-15.6-5l10.7,9.9
						c-0.1,0.1-0.1,0.1-0.2,0.2c-1.9,1.7-4.1,3.7-6.6,5.9l0,0l0,0c-1.2,0.3-2.3,0.4-3.6,0.4c-8.1,0-14.7-6.3-15.2-14.3v-6.8l14.6-11
						v-22.9l14.8-14.8l0,0c0.6,2.3,0.5,4.8-0.3,7.2c-1.1,3.4-3.5,6.1-6.6,7.8c-2.5,1.2-5.2,1.7-7.9,1.3v6.9c0.6,0.1,1.2,0.1,1.8,0.1
						c3.2,0,6.2-0.8,9.2-2.2c4.8-2.5,8.3-6.6,10.1-11.8c1.5-4.8,1.2-10.1-0.9-14.7l-5.4,5.4l5.4-5.4l0.2-0.2l18.6,15.7L155,150.7z"
						/>
					<g>
						<path class="st4" d="M128.2,73.2l-7-59L114,73.3c2.3-0.4,4.8-0.7,7.2-0.7C123.6,72.6,125.9,72.8,128.2,73.2z"/>
						<path class="st4" d="M92.4,84.9L44.6,55L85,95.8c1.7-3.8,4-7.3,6.8-10.4C92,85.3,92.2,85.1,92.4,84.9z"/>
						<path class="st4" d="M65.9,16.1l30.6,65c3.6-2.8,7.7-5,12.1-6.5L65.9,16.1z"/>
						<path class="st4" d="M197.7,55.3L150,85.1c3,3.3,5.5,6.9,7.3,11L197.7,55.3z"/>
						<path class="st4" d="M176.4,15.9l-42.8,58.6c4.4,1.4,8.4,3.7,12,6.6L176.4,15.9z"/>
					</g>
				</g>
			</g>
		</g>
		<g>
			<path class="st2" d="M212.6,200.4c2.8,0,5.1,2.3,5.1,5.1s-2.3,5.1-5.1,5.1c-2.8,0-5.1-2.3-5.1-5.1
				C207.6,202.7,209.8,200.4,212.6,200.4z M212.6,209.6c2.3,0,4-1.8,4-4c0-2.3-1.8-4-4-4s-4,1.8-4,4
				C208.6,207.7,210.4,209.6,212.6,209.6z M210.8,203.2c0-0.1,0.1-0.3,0.3-0.3h2.1c0.9,0,1.7,0.6,1.7,1.6c0,1-0.7,1.3-1.1,1.5
				c0.3,0.5,0.5,1.1,0.8,1.5c0.1,0.2,0,0.4-0.2,0.4h-0.7c-0.1,0-0.2-0.1-0.3-0.2l-0.7-1.6h-0.9v1.6c0,0.1-0.1,0.3-0.3,0.3h-0.5
				c-0.2,0-0.3-0.1-0.3-0.3L210.8,203.2L210.8,203.2z M213.1,205.3c0.4,0,0.7-0.3,0.7-0.7s-0.3-0.7-0.7-0.7h-1.2v1.3H213.1z"/>
		</g>
	</g>
</g>
</svg>
